<svg xmlns="http://www.w3.org/2000/svg" xmlns:xlink="http://www.w3.org/1999/xlink" width="237" height="116" viewBox="0 0 237 116">
  <metadata><?xpacket begin="﻿" id="W5M0MpCehiHzreSzNTczkc9d"?>
<x:xmpmeta xmlns:x="adobe:ns:meta/" x:xmptk="Adobe XMP Core 5.6-c142 79.160924, 2017/07/13-01:06:39        ">
   <rdf:RDF xmlns:rdf="http://www.w3.org/1999/02/22-rdf-syntax-ns#">
      <rdf:Description rdf:about=""/>
   </rdf:RDF>
</x:xmpmeta>
                                                                                                    
                                                                                                    
                                                                                                    
                                                                                                    
                                                                                                    
                                                                                                    
                                                                                                    
                                                                                                    
                                                                                                    
                                                                                                    
                                                                                                    
                                                                                                    
                                                                                                    
                                                                                                    
                                                                                                    
                                                                                                    
                                                                                                    
                                                                                                    
                                                                                                    
                                                                                                    
                           
<?xpacket end="w"?></metadata>
<defs>
    <style>
      .cls-1, .cls-2, .cls-3, .cls-4 {
        fill: #fff;
        stroke: #8c3500;
        stroke-width: 1px;
      }

      .cls-1, .cls-2, .cls-3, .cls-4, .cls-5 {
        stroke-linejoin: round;
        fill-rule: evenodd;
      }

      .cls-1 {
        filter: url(#filter);
      }

      .cls-2 {
        filter: url(#filter-2);
      }

      .cls-3 {
        filter: url(#filter-3);
      }

      .cls-4 {
        filter: url(#filter-4);
      }

      .cls-5 {
        fill: #ffc000;
        stroke: #ca2b00;
        stroke-opacity: 0.68;
        stroke-width: 2px;
      }
    </style>
    <filter id="filter" x="50" y="4" width="64" height="66" filterUnits="userSpaceOnUse">
      <feFlood result="flood" flood-color="#ff8a00"/>
      <feComposite result="composite" operator="in" in2="SourceGraphic"/>
      <feBlend result="blend" in2="SourceGraphic"/>
    </filter>
    <filter id="filter-2" x="68" y="-2" width="47" height="78" filterUnits="userSpaceOnUse">
      <feFlood result="flood" flood-color="#ffc000"/>
      <feComposite result="composite" operator="in" in2="SourceGraphic"/>
      <feBlend result="blend" in2="SourceGraphic"/>
    </filter>
    <filter id="filter-3" x="112" y="4" width="65" height="66" filterUnits="userSpaceOnUse">
      <feFlood result="flood" flood-color="#ff8a00"/>
      <feComposite result="composite" operator="in" in2="SourceGraphic"/>
      <feBlend result="blend" in2="SourceGraphic"/>
    </filter>
    <filter id="filter-4" x="112" y="-2" width="47" height="78" filterUnits="userSpaceOnUse">
      <feFlood result="flood" flood-color="#ffc000"/>
      <feComposite result="composite" operator="in" in2="SourceGraphic"/>
      <feBlend result="blend" in2="SourceGraphic"/>
    </filter>
  </defs>
  <g style="fill: #fff; filter: url(#filter)">
    <path id="path" class="cls-1" d="M110.776,66.407c-24.464-3.257-29.7-14.558-30.995-27.759C78.361,24.14,69.564,15.842,53.437,7.786c12.539,3.944,27.171,8.7,33.314,26.39C91.3,47.285,101.674,36.771,110.776,66.407Z" style="stroke: inherit; filter: none; fill: inherit"/>
  </g>
  <use xlink:href="#path" style="stroke: #8c3500; filter: none; fill: none"/>
  <g style="fill: #fff; filter: url(#filter-2)">
    <path id="Shape_1_copy" data-name="Shape 1 copy" class="cls-2" d="M111.212,72.828C88.425,63.351,86.29,51.078,88.458,37.993,90.841,23.611,84.492,13.32,71,1.364,82.09,8.419,94.991,16.8,96.347,35.477,97.352,49.318,110.091,41.846,111.212,72.828Z" style="stroke: inherit; filter: none; fill: inherit"/>
  </g>
  <use xlink:href="#Shape_1_copy" style="stroke: #8c3500; filter: none; fill: none"/>
  <g style="fill: #fff; filter: url(#filter-3)">
    <path id="Shape_1_copy_2" data-name="Shape 1 copy 2" class="cls-3" d="M115.88,66.407c24.464-3.257,29.7-14.558,31-27.759,1.42-14.508,10.217-22.806,26.345-30.862-12.539,3.944-27.172,8.7-33.314,26.39C135.353,47.285,124.982,36.771,115.88,66.407Z" style="stroke: inherit; filter: none; fill: inherit"/>
  </g>
  <use xlink:href="#Shape_1_copy_2" style="stroke: #8c3500; filter: none; fill: none"/>
  <g style="fill: #fff; filter: url(#filter-4)">
    <path id="Shape_1_copy_3" data-name="Shape 1 copy 3" class="cls-4" d="M115.444,72.828c22.788-9.478,24.922-21.75,22.754-34.835-2.383-14.381,3.966-24.673,17.459-36.629-11.091,7.055-23.992,15.44-25.348,34.113C129.3,49.318,116.565,41.846,115.444,72.828Z" style="stroke: inherit; filter: none; fill: inherit"/>
  </g>
  <use xlink:href="#Shape_1_copy_3" style="stroke: #8c3500; filter: none; fill: none"/>
  <path id="Abachi" class="cls-5" d="M17.862,112.773h6.087a16.429,16.429,0,0,0,2.216-.191H26.3q1.057-.218,1.875-0.464h0.068a10.246,10.246,0,0,0,5.592-3.873,2.809,2.809,0,0,0,.494-0.805q0.324-.667.426-0.859a3.651,3.651,0,0,1,.273-1.064,6.229,6.229,0,0,0,.341-1.146,10.788,10.788,0,0,0,.1-1.487V101.37a0.1,0.1,0,0,1,.034-0.082v-0.354a0.1,0.1,0,0,1-.034-0.082v-1.5q0-.763-0.034-1.528A8.521,8.521,0,0,0,34.179,94.3a5.078,5.078,0,0,0-2.2-2.319,24.191,24.191,0,0,0-3.018-1.609q-1.023-.327-2.182-0.6-0.034,0-.75-0.136a0.855,0.855,0,0,1-.546-0.082q-0.409,0-1.159-.055L4.853,89.476a1.765,1.765,0,0,1-.341.027l-0.034.027a1.066,1.066,0,0,0-.188.068,0.428,0.428,0,0,1-.188.041l-0.034.027a0.977,0.977,0,0,0-.665.928A1.116,1.116,0,0,0,3.9,91.6H3.932v0.027a1.156,1.156,0,0,0,.136.1,0.652,0.652,0,0,0,.17.068,0.553,0.553,0,0,1,.341.082l0.375,0.014Q5.3,91.9,7.138,91.9H24.085q0.954,0.055,1.432.109,0.307,0.082.58,0.136t0.58,0.109a4.108,4.108,0,0,1,2.762,1.064,19.3,19.3,0,0,1,1.978,1.937,6.048,6.048,0,0,1,1.023,2.892V99.9q-5.217,0-10.4.014t-10.366.014q-0.478,0-.9.041t-0.87.041q-0.478.083-1.057,0.164a7.216,7.216,0,0,0-1.79.464,7.362,7.362,0,0,0-1.517.736,0.107,0.107,0,0,1-.068.028v0.027A5.038,5.038,0,0,0,3.8,103.253a5.1,5.1,0,0,0-.546,1.609,7.27,7.27,0,0,0,.017,2.673,5.155,5.155,0,0,0,1.279,2.428H4.58a2.22,2.22,0,0,0,.835.832,3.979,3.979,0,0,0,.938.587,0.735,0.735,0,0,1,.341.218,2.96,2.96,0,0,1,.409.177c0.159,0.082.307,0.15,0.443,0.2a10.646,10.646,0,0,0,2.251.573v0.027a3.185,3.185,0,0,1,.375.055,6.727,6.727,0,0,0,.716.082c0.227,0.018.38,0.032,0.46,0.04s0.244,0.014.494,0.014h6.019Zm-8.508-2.81a0.027,0.027,0,0,1-.034-0.027,2.411,2.411,0,0,1-.648-0.218,1.522,1.522,0,0,1-.546-0.3q-0.409,0-.409-0.246a0.109,0.109,0,0,1-.068-0.027H7.615v-0.027a3,3,0,0,1-1.364-2.074v-0.027H6.217a9.251,9.251,0,0,1-.068-1.282,3.57,3.57,0,0,1,.307-1.364H6.49a1.352,1.352,0,0,1,.358-0.6,1.425,1.425,0,0,1,.563-0.491v-0.027c0.091-.055.222-0.137,0.392-0.246a0.88,0.88,0,0,1,.46-0.164,1.419,1.419,0,0,1,.409-0.136,2.875,2.875,0,0,1,.511-0.109,1.334,1.334,0,0,1,.614-0.137q0.545-.054.75-0.081c0.182,0,.369,0,0.563-0.014s0.392-.023.6-0.041H32.474v0.982a8.674,8.674,0,0,1-.921,3.165q-0.2.381-.307,0.545a7.805,7.805,0,0,1-1.6,1.61c-0.068.054-.171,0.132-0.307,0.231a1.074,1.074,0,0,1-.307.178,1.13,1.13,0,0,1-.426.273,2.078,2.078,0,0,1-.46.191,2.174,2.174,0,0,1-.665.259q-0.6.177-.631,0.177l-0.034.027-0.358.1a3.289,3.289,0,0,1-.324.068q-0.137.027-1.125,0.164c-0.136.018-.29,0.041-0.46,0.068a0.925,0.925,0,0,1-.426-0.014H11.844a10.669,10.669,0,0,1-2.489-.382h0Zm62.18,2.585a6.912,6.912,0,0,0,.776-0.089,3.258,3.258,0,0,1,.443-0.059v-0.029a16.987,16.987,0,0,0,2.438-.621q0.185-.088.443-0.222a2.5,2.5,0,0,1,.48-0.192,0.626,0.626,0,0,1,.406-0.236,9.161,9.161,0,0,0,.979-0.65,2.614,2.614,0,0,0,.942-0.916,5.908,5.908,0,0,0,1.367-2.616,8.045,8.045,0,0,0,.074-2.881,7.276,7.276,0,0,0-.628-1.773,5.944,5.944,0,0,0-1.81-1.98v-0.03a0.116,0.116,0,0,1-.074-0.03,9.224,9.224,0,0,0-1.681-.8,7.928,7.928,0,0,0-1.9-.5l-1.182-.177q-0.629-.059-1.884-0.118h-22.5v-9.9q0-1.389-1.681-1.433t-1.681,1.374q-0.037,1.182-.055,1.418t-0.018.931q0,0.695.018,2.512t0.055,6.132a0.107,0.107,0,0,0-.037.089v0.384a0.1,0.1,0,0,0,.037.088v1.655a11.8,11.8,0,0,0,.111,1.626,5.105,5.105,0,0,0,.332,1.212,3.983,3.983,0,0,1,.3,1.152h0.037q0.074,0.207.425,0.931a2.459,2.459,0,0,0,.573.872,10.873,10.873,0,0,0,6.058,4.226h0.074q0.886,0.266,2.032.5h0.148a17.266,17.266,0,0,0,2.438.207H70.537q0.517-.029,1-0.059h0Zm-7.61-2.571h-6.76v-0.03a3.239,3.239,0,0,1-.96-0.029q-0.037,0-.554-0.074c-0.345-.049-0.554-0.084-0.628-0.1-0.148-.02-0.283-0.045-0.406-0.074s-0.246-.064-0.369-0.1v-0.029a4.574,4.574,0,0,1-.757-0.207,1.281,1.281,0,0,1-.646-0.3,1.918,1.918,0,0,1-.536-0.192,1.129,1.129,0,0,1-.462-0.281,1,1,0,0,1-.369-0.192,1.816,1.816,0,0,1-.3-0.251,10.907,10.907,0,0,1-1.736-1.744q-0.222-.412-0.333-0.591a8.919,8.919,0,0,1-1-3.457v-1.064H70.685q0.443,0,1.256.059c0.148,0.02.412,0.049,0.794,0.089a1.757,1.757,0,0,1,.683.147,2.885,2.885,0,0,1,.536.119,3.1,3.1,0,0,1,.462.147,0.915,0.915,0,0,1,.462.178,4.542,4.542,0,0,0,.462.266v0.029a1.462,1.462,0,0,1,.591.532,2.208,2.208,0,0,1,.406.65h0.037a3.582,3.582,0,0,1,.332,1.478,9.723,9.723,0,0,1-.074,1.389H76.6v0.029a3.432,3.432,0,0,1-1.478,2.276H75.081v0.03H75.007a0.476,0.476,0,0,1-.443.295,2.456,2.456,0,0,1-.628.325,2.639,2.639,0,0,1-.7.237v0.029a12.082,12.082,0,0,1-2.7.414H63.925Zm43.612,2.464h7.1a19.039,19.039,0,0,0,2.586-.223h0.159q1.231-.253,2.188-0.541h0.079a11.957,11.957,0,0,0,6.525-4.519,3.3,3.3,0,0,0,.577-0.939c0.251-.519.417-0.854,0.5-1a4.252,4.252,0,0,1,.318-1.242,7.314,7.314,0,0,0,.4-1.336,12.685,12.685,0,0,0,.119-1.735V99.138a0.114,0.114,0,0,1,.04-0.1V98.629a0.113,0.113,0,0,1-.04-0.1v-1.75q0-.891-0.04-1.782a9.946,9.946,0,0,0-1.471-4.105,5.93,5.93,0,0,0-2.566-2.705,28.274,28.274,0,0,0-3.521-1.878q-1.194-.382-2.546-0.7-0.041,0-.876-0.159a1,1,0,0,1-.636-0.1c-0.318,0-.77-0.021-1.353-0.064L92.36,85.262a2.064,2.064,0,0,1-.4.032l-0.04.032a1.243,1.243,0,0,0-.219.08,0.5,0.5,0,0,1-.219.048l-0.04.032a1.14,1.14,0,0,0-.776,1.082,1.3,1.3,0,0,0,.577,1.178h0.04v0.032a1.346,1.346,0,0,0,.159.111,0.762,0.762,0,0,0,.2.08,0.645,0.645,0,0,1,.4.1l0.438,0.016q0.4,0.016,2.546.016H114.8q1.113,0.064,1.671.127,0.357,0.1.676,0.159c0.212,0.043.438,0.085,0.676,0.127a4.793,4.793,0,0,1,3.223,1.241,22.527,22.527,0,0,1,2.307,2.26,7.063,7.063,0,0,1,1.194,3.374v2.037q-6.087,0-12.134.016t-12.094.016q-0.558,0-1.054.048t-1.014.048q-0.558.1-1.233,0.191a8.477,8.477,0,0,0-2.089.541,8.574,8.574,0,0,0-1.77.859,0.128,0.128,0,0,1-.08.032V99.2a5.881,5.881,0,0,0-1.949,2.133,5.951,5.951,0,0,0-.636,1.878,8.485,8.485,0,0,0,.02,3.119A6.013,6.013,0,0,0,92,109.163h0.04a2.6,2.6,0,0,0,.975.971,4.631,4.631,0,0,0,1.094.684,0.848,0.848,0,0,1,.4.255,3.162,3.162,0,0,1,.477.207c0.185,0.095.358,0.175,0.517,0.238a12.44,12.44,0,0,0,2.626.669v0.031a3.99,3.99,0,0,1,.438.064,7.59,7.59,0,0,0,.835.1c0.265,0.021.444,0.037,0.537,0.047s0.285,0.016.577,0.016h7.021Zm-9.925-3.278a0.032,0.032,0,0,1-.04-0.032,2.82,2.82,0,0,1-.756-0.254,1.77,1.77,0,0,1-.636-0.35q-0.477,0-.477-0.287a0.122,0.122,0,0,1-.079-0.032h-0.04v-0.032a3.5,3.5,0,0,1-1.591-2.418v-0.032h-0.04a10.8,10.8,0,0,1-.08-1.5,4.163,4.163,0,0,1,.358-1.591h0.04a1.57,1.57,0,0,1,.418-0.7,1.659,1.659,0,0,1,.656-0.573v-0.032c0.106-.064.259-0.159,0.457-0.287a1.028,1.028,0,0,1,.537-0.191,1.679,1.679,0,0,1,.477-0.159,3.465,3.465,0,0,1,.6-0.127,1.561,1.561,0,0,1,.716-0.159q0.636-.063.875-0.1,0.318,0,.656-0.015t0.7-.048h24.227V101.4a10.115,10.115,0,0,1-1.074,3.691q-0.239.447-.358,0.637a9.1,9.1,0,0,1-1.87,1.878c-0.079.063-.2,0.154-0.358,0.27a1.259,1.259,0,0,1-.358.207,1.292,1.292,0,0,1-.5.318,2.377,2.377,0,0,1-.537.223,2.484,2.484,0,0,1-.776.3c-0.464.139-.71,0.207-0.736,0.207l-0.04.032-0.417.111a3.758,3.758,0,0,1-.378.08q-0.159.032-1.313,0.191-0.239.032-.537,0.08a1.1,1.1,0,0,1-.5-0.016H100.516a12.526,12.526,0,0,1-2.9-.446h0Zm65.681,3.278q5.728,0,11.457-.032a2.35,2.35,0,0,0,1.234-.445,1.618,1.618,0,0,0,.358-1.21,1.436,1.436,0,0,0-.478-0.732v-0.031h-0.04v-0.032c-0.053-.021-0.2-0.1-0.437-0.223-0.239-.042-0.465-0.085-0.677-0.127H151.716c-0.027,0-.153-0.011-0.378-0.032s-0.418-.042-0.577-0.064a1.861,1.861,0,0,1-.6-0.063h-0.08c-0.477-.085-0.909-0.176-1.293-0.271a7.671,7.671,0,0,1-1.174-.4,4.1,4.1,0,0,1-.557-0.239c-0.185-.095-0.358-0.175-0.517-0.238a1.086,1.086,0,0,1-.278-0.159,0.128,0.128,0,0,1-.08-0.032,0.786,0.786,0,0,0-.278-0.191,0.128,0.128,0,0,1-.08-0.032,1.186,1.186,0,0,0-.159-0.095,0.864,0.864,0,0,0-.2-0.128v-0.032l-0.517-.413h-0.04V107.19h-0.04v-0.064h-0.039L144.675,107a0.539,0.539,0,0,0-.12-0.127c-0.053-.043-0.146-0.128-0.278-0.255a0.53,0.53,0,0,1-.2-0.286h-0.04q-0.477-.638-0.676-0.955-0.16-.287-0.319-0.557a4.59,4.59,0,0,1-.278-0.557c-0.08-.191-0.166-0.408-0.259-0.653a1.853,1.853,0,0,1-.139-0.652,5.392,5.392,0,0,1-.139-0.557,1.75,1.75,0,0,1-.02-0.589h-0.04q-0.079-1.686-.079-3.405t0.119-3.437a1.428,1.428,0,0,1,.06-0.4q0.058-.207.1-0.4a1.089,1.089,0,0,1,.08-0.4c0.053-.138.1-0.27,0.159-0.4a7.513,7.513,0,0,1,1.193-1.91,10.805,10.805,0,0,1,1.074-1.05,0.919,0.919,0,0,0,.239-0.191,0.775,0.775,0,0,1,.279-0.191c0.212-.085.291-0.127,0.238-0.127V89.876a13.089,13.089,0,0,1,3.78-1.5q0.318-.031.954-0.159a2.656,2.656,0,0,1,.955-0.064,0.5,0.5,0,0,1,.4-0.048,1.2,1.2,0,0,0,.517-0.016h22.2a1.371,1.371,0,0,0,1.552-1.241h0.039V86.5h-0.039a1.329,1.329,0,0,0-.279-0.637,0.7,0.7,0,0,1-.119-0.159h-0.04V85.675a0.181,0.181,0,0,1-.139-0.064,0.4,0.4,0,0,0-.14-0.1V85.484l-0.238-.1c-0.478-.064-0.7-0.1-0.677-0.1q-5.49,0-10.96-.016t-10.88-.016q-1.312.064-2.029,0.127a0.27,0.27,0,0,1-.159-0.032v0.032a25.943,25.943,0,0,0-3.382.7q-0.477.191-.9,0.334c-0.278.1-.564,0.2-0.855,0.3l-0.657.35q-0.3.16-.616,0.318-0.479.286-.637,0.4a2.76,2.76,0,0,1-.278.175l-0.836.668a7.287,7.287,0,0,0-.756.7,4.138,4.138,0,0,0-.557.573c-0.133.17-.278,0.35-0.437,0.541a2.25,2.25,0,0,0-.358.573,7.03,7.03,0,0,0-.915,1.83,10.313,10.313,0,0,0-.438,1.894q-0.04.255-.06,0.477c-0.013.149-.019,0.3-0.019,0.446q0,1.592-.02,3.183T138.667,102a12.356,12.356,0,0,0,.279,1.592,9.859,9.859,0,0,0,.955,2.482,12.572,12.572,0,0,0,1.312,1.91h0.04a0.3,0.3,0,0,0,.08.127h0.04a0.446,0.446,0,0,0,.119.159,0.185,0.185,0,0,0,.1.159,0.466,0.466,0,0,1,.14.127h0.039a0.156,0.156,0,0,0,.08.144,1.009,1.009,0,0,1,.119.079h0.04a0.112,0.112,0,0,0,.02.064,0.066,0.066,0,0,0,.06.032h0.039v0.031a0.135,0.135,0,0,0,.08.112,0.347,0.347,0,0,1,.119.111h0.04a0.35,0.35,0,0,0,.08.1,0.128,0.128,0,0,0,.079.032,0.084,0.084,0,0,0,.04.063h0.04v0.032a1.763,1.763,0,0,1,.358.255,0.633,0.633,0,0,0,.239.159V109.8h0.039v0.031a0.384,0.384,0,0,1,.159.1,0.58,0.58,0,0,1,.2.127,0.952,0.952,0,0,0,.2.1v0.032a1.814,1.814,0,0,0,.4.222q0.039,0.033.438,0.255v0.032a2.591,2.591,0,0,1,.6.286q0.279,0.1.557,0.223l0.06,0.048a0.185,0.185,0,0,0,.1.016V111.3a2.153,2.153,0,0,1,.457.144,3.166,3.166,0,0,0,.418.143H146.9a10.3,10.3,0,0,0,1.592.445q0.477,0.1,1.014.176c0.358,0.053.709,0.1,1.054,0.143a1.373,1.373,0,0,0,.677.063,1.335,1.335,0,0,1,.6.032h11.458Zm26.418-13.635V88.788A1.312,1.312,0,0,0,188.1,87.5q-1.533.044-1.533,1.2v22.785q0,1.182,1.533,1.212a1.285,1.285,0,0,0,1.57-1.3q0-2.571.019-5.156t0.018-5.157q1.441,0,4.156.014t5.818,0.015h11.267l0.425,0.059a2.9,2.9,0,0,0,.425.03v0.029a5.892,5.892,0,0,1,.813.148,10.22,10.22,0,0,1,2.032.8q0.221,0.148.812,0.5a1.854,1.854,0,0,1,.7.591,0.718,0.718,0,0,1,.148.148,7.565,7.565,0,0,1,1.588,2.571,9.817,9.817,0,0,1,.351,2.808q-0.018,1.507-.018,2.748a1.111,1.111,0,0,0,1.293,1.035v0.029h0.369v-0.029a1.4,1.4,0,0,0,.665-0.178,0.592,0.592,0,0,0,.185-0.088v-0.03a0.1,0.1,0,0,1,.074-0.059,0.2,0.2,0,0,0,.111-0.118h0.037l0.073-.178h0.037a0.692,0.692,0,0,1,.037-0.206c0.025-.079.049-0.158,0.074-0.237v-3.428a8.416,8.416,0,0,0-.111-1.359v-0.119q-0.147-.591-0.314-1.137a10.247,10.247,0,0,0-.424-1.138q-0.371-.68-0.7-1.182c-0.124-.138-0.24-0.276-0.351-0.414a4.436,4.436,0,0,1-.314-0.443q-0.333-.325-0.444-0.429a2.257,2.257,0,0,1-.184-0.192q-0.371-.266-0.721-0.547t-0.72-.546c-0.1-.06-0.2-0.119-0.314-0.178a1.8,1.8,0,0,1-.277-0.177c-0.2-.079-0.4-0.172-0.61-0.281a4.326,4.326,0,0,0-.572-0.251,8.869,8.869,0,0,0-1.958-.576q-1.073-.192-2.069-0.31a5.357,5.357,0,0,1-.535.03H189.711Zm43.7,2.251q0-5.116.035-10.217a1.2,1.2,0,0,0-1.484-1.159q-1.415.041-1.415,1.078v20.569q0,1.065,1.415,1.105a1.165,1.165,0,0,0,1.449-1.159V101.057Z"/>
</svg>
