<svg xmlns="http://www.w3.org/2000/svg" width="125" height="40" viewBox="0 0 125 40">
  <metadata><?xpacket begin="﻿" id="W5M0MpCehiHzreSzNTczkc9d"?>
<x:xmpmeta xmlns:x="adobe:ns:meta/" x:xmptk="Adobe XMP Core 5.6-c142 79.160924, 2017/07/13-01:06:39        ">
   <rdf:RDF xmlns:rdf="http://www.w3.org/1999/02/22-rdf-syntax-ns#">
      <rdf:Description rdf:about=""/>
   </rdf:RDF>
</x:xmpmeta>
                                                                                                    
                                                                                                    
                                                                                                    
                                                                                                    
                                                                                                    
                                                                                                    
                                                                                                    
                                                                                                    
                                                                                                    
                                                                                                    
                                                                                                    
                                                                                                    
                                                                                                    
                                                                                                    
                                                                                                    
                                                                                                    
                                                                                                    
                                                                                                    
                                                                                                    
                                                                                                    
                           
<?xpacket end="w"?></metadata>
<defs>
    <style>
      .cls-1 {
        fill-rule: evenodd;
      }
    </style>
  </defs>
  <path id="szauna" class="cls-1" d="M310.028,25.944q0-1.24.036-2.168t0.086-1.605q0.051-.679.13-1.131c0.052-.3.108-0.555,0.165-0.759V20.222h-3.453v0.058q0.087,0.306.166,0.759t0.137,1.131q0.057,0.679.086,1.605t0.029,2.168v9.5q0,1.241-.029,2.168t-0.086,1.6q-0.059.672-.137,1.124t-0.166.759v0.058h6.216c0.095,0,.251,0,0.467.007l0.741,0.015,0.885,0.014q0.468,0.007.892,0.022c0.283,0.01.539,0.019,0.77,0.029s0.4,0.019.518,0.029L317.9,38.9a22.844,22.844,0,0,1-2.259.482q-1.065.19-2.489,0.336a30.758,30.758,0,0,1-3.122.146V25.944Zm25.278,8.188A6.982,6.982,0,0,1,334.8,37a4.751,4.751,0,0,1-1.338,1.8,4.828,4.828,0,0,1-1.891.927,9.115,9.115,0,0,1-4.345,0,4.888,4.888,0,0,1-1.9-.927,4.725,4.725,0,0,1-1.346-1.8,7,7,0,0,1-.51-2.868V25.944q0-1.24.028-2.168c0.02-.618.048-1.153,0.087-1.605s0.084-.829.136-1.131,0.108-.555.166-0.759V20.222H320.43v0.058c0.057,0.2.113,0.457,0.165,0.759s0.1,0.679.137,1.131,0.067,0.988.086,1.605,0.029,1.341.029,2.168v8.028a8.844,8.844,0,0,0,.633,3.539,6.187,6.187,0,0,0,1.748,2.364,6.952,6.952,0,0,0,2.619,1.321,12.331,12.331,0,0,0,3.244.409,11.367,11.367,0,0,0,3.208-.43,6.412,6.412,0,0,0,2.518-1.372,6.343,6.343,0,0,0,1.64-2.416,9.6,9.6,0,0,0,.59-3.561V25.944q0-1.24.036-2.168t0.086-1.605q0.051-.679.13-1.131c0.052-.3.108-0.555,0.165-0.759V20.222H334.9v0.058a6.922,6.922,0,0,1,.159.759c0.047,0.3.091,0.679,0.129,1.131s0.067,0.988.086,1.605,0.029,1.341.029,2.168v8.188Zm5.136,7.021h2.878q-0.043-.233-0.087-0.54-0.029-.263-0.057-0.642t-0.029-.876q0-.394.072-1.219t0.194-1.9q0.123-1.08.281-2.328t0.316-2.5q0.375-2.934.878-6.393l8.546,16.231,0.993,0.117,8.488-16.2,1.827,13.983c0.019,0.156.034,0.3,0.043,0.431s0.015,0.26.015,0.387a5.106,5.106,0,0,1-.065.876,2.431,2.431,0,0,1-.137.526v0.058h3.626V41.094a3.572,3.572,0,0,1-.209-0.445,6.78,6.78,0,0,1-.223-0.686q-0.115-.416-0.23-1t-0.216-1.4l-2.359-17.34H363.62l-8.978,17.165-9.049-17.165h-1.827q-0.043.409-.137,1.219t-0.237,1.9q-0.144,1.095-.324,2.416t-0.374,2.744q-0.195,1.423-.4,2.89t-0.417,2.868q-0.209,1.4-.4,2.678t-0.352,2.3a4.938,4.938,0,0,1-.317,1.16,4.47,4.47,0,0,1-.36.693v0.058Zm30,0h2.878q-0.043-.233-0.087-0.54-0.029-.263-0.057-0.642t-0.029-.876q0-.394.072-1.219t0.194-1.9q0.123-1.08.281-2.328t0.316-2.5q0.375-2.934.878-6.393l8.546,16.231,0.993,0.117,8.488-16.2,1.827,13.983c0.019,0.156.034,0.3,0.043,0.431s0.015,0.26.015,0.387a5.106,5.106,0,0,1-.065.876,2.431,2.431,0,0,1-.137.526v0.058h3.626V41.094a3.572,3.572,0,0,1-.209-0.445,6.78,6.78,0,0,1-.223-0.686q-0.115-.416-0.23-1t-0.216-1.4l-2.359-17.34h-1.367l-8.978,17.165L375.59,20.222h-1.827q-0.043.409-.137,1.219t-0.237,1.9q-0.144,1.095-.324,2.416t-0.374,2.744q-0.195,1.423-.4,2.89t-0.417,2.868q-0.208,1.4-.4,2.678t-0.352,2.3a4.938,4.938,0,0,1-.317,1.16,4.47,4.47,0,0,1-.36.693v0.058Zm31.019-20.93v0.058q0.085,0.306.165,0.759t0.137,1.131q0.057,0.679.086,1.605t0.029,2.168v9.5q0,1.241-.029,2.168t-0.086,1.6q-0.057.672-.137,1.124t-0.165.759v0.058h6.215q0.144,0,.468.007l0.741,0.015,0.884,0.014q0.468,0.007.892,0.022t0.77,0.029c0.23,0.01.4,0.019,0.518,0.029l0.417-2.364a22.844,22.844,0,0,1-2.259.482q-1.064.19-2.488,0.336a30.786,30.786,0,0,1-3.122.146V30.717q0.963,0,2.014.08t1.942,0.182q1.037,0.117,2.029.248l0.446-2.116q-0.749.117-1.727,0.2-0.834.073-2.028,0.146t-2.676.088V21.58l1.05-.058q0.446-.029.928-0.051t0.827-.022a17.982,17.982,0,0,1,1.806.08q0.783,0.08,1.33.168a10.425,10.425,0,0,1,1.108.234l0.7-1.941a11.409,11.409,0,0,1-1.424.117q-1.05.044-2.532,0.066t-3.259.037q-1.778.015-3.575,0.015h0Zm17.48,11.939a8.108,8.108,0,0,0,.827.1q0.411,0.029.813,0.029c0.23,0,.456-0.007.676-0.022s0.442-.032.662-0.051l5.093,7.283a7.961,7.961,0,0,1,.554.912,2.641,2.641,0,0,1,.281.737H432V41.094a2.526,2.526,0,0,1-.561-0.285,4.125,4.125,0,0,1-.569-0.467,8,8,0,0,1-.618-0.679q-0.324-.394-0.7-0.934l-5.05-7.2a6.678,6.678,0,0,0,1.511-.941,5.928,5.928,0,0,0,1.158-1.292,6.083,6.083,0,0,0,.748-1.627,6.843,6.843,0,0,0,.266-1.949,5.737,5.737,0,0,0-.482-2.4,5.052,5.052,0,0,0-1.345-1.788,5.96,5.96,0,0,0-2.036-1.109,8.257,8.257,0,0,0-2.554-.38,17.55,17.55,0,0,0-2.438.139,11.165,11.165,0,0,1-1.518.139q-0.36,0-.7-0.007t-0.611-.036l-0.605-.058v0.058a7.659,7.659,0,0,1,.166.766q0.079,0.46.129,1.131t0.087,1.6q0.036,0.927.036,2.168v9.5q0,1.256-.036,2.175T416.2,39.211q-0.05.672-.129,1.124t-0.166.759v0.058h3.453V41.094q-0.086-.307-0.165-0.759t-0.13-1.124q-0.05-.671-0.086-1.6t-0.036-2.168V32.161Zm0-10.8a5.032,5.032,0,0,1,.892-0.219,9.709,9.709,0,0,1,1.583-.1,4.007,4.007,0,0,1,1.712.343,3.264,3.264,0,0,1,1.215.963,4.269,4.269,0,0,1,.727,1.511,7.493,7.493,0,0,1,.245,1.985,7.158,7.158,0,0,1-.346,2.343A4.627,4.627,0,0,1,424,29.855a3.865,3.865,0,0,1-1.518,1,5.66,5.66,0,0,1-1.971.328q-0.373,0-.777-0.037a6.08,6.08,0,0,1-.791-0.124V21.361ZM334.01,59.98c1.825,0,3.106-.956,3.106-2.66V57.295c0-1.5-.967-2.121-2.683-2.575-1.463-.38-1.825-0.564-1.825-1.128V53.567a0.9,0.9,0,0,1,1.087-.748,3.936,3.936,0,0,1,2.2.846l0.967-1.422a4.854,4.854,0,0,0-3.142-1.091,2.66,2.66,0,0,0-2.961,2.587v0.025c0,1.7,1.1,2.182,2.8,2.624,1.414,0.368,1.7.613,1.7,1.091V57.5a0.99,0.99,0,0,1-1.221.809,3.851,3.851,0,0,1-2.526-1.042l-1.1,1.336A5.342,5.342,0,0,0,334.01,59.98Zm9.187-.123h7.046V58.2H345.59l4.653-5.493V51.275h-6.9V52.93h4.508L343.2,58.423v1.435Zm12.923,0h1.9l0.773-1.925h3.578l0.773,1.925h1.946l-3.626-8.644h-1.716Zm3.335-3.592,1.124-2.783,1.124,2.783h-2.248Zm15,3.727c2.272,0,3.71-1.275,3.71-3.874V51.275h-1.861v4.916a1.764,1.764,0,0,1-1.825,2.06c-1.136,0-1.824-.723-1.824-2.121V51.275h-1.862v4.9C370.794,58.7,372.184,59.992,374.456,59.992Zm10.445-.135h1.837V54.4l4.1,5.456h1.583V51.275h-1.837v5.284l-3.964-5.284H384.9v8.582Zm13.66,0h1.9l0.774-1.925h3.577l0.773,1.925h1.946L403.9,51.213h-1.716Zm3.335-3.592,1.124-2.783,1.124,2.783H401.9Z" transform="translate(-307 -20)"/>
</svg>
